{"accessors":[{"name":"Node-Mesh_positions","componentType":5126,"count":1446,"min":[-0.7821984887123108,-0.18277239799499512,-0.3007872998714447],"max":[0.7860041260719299,0.33009231090545654,0.3427600860595703],"type":"VEC3","bufferView":0,"byteOffset":0},{"name":"Node-Mesh_0_indices","componentType":5123,"count":444,"min":[0],"max":[341],"type":"SCALAR","bufferView":1,"byteOffset":0},{"name":"Node-Mesh_1_indices","componentType":5123,"count":1080,"min":[342],"max":[1061],"type":"SCALAR","bufferView":1,"byteOffset":888},{"name":"Node-Mesh_2_indices","componentType":5123,"count":264,"min":[1062],"max":[1205],"type":"SCALAR","bufferView":1,"byteOffset":3048},{"name":"Node-Mesh_3_indices","componentType":5123,"count":360,"min":[1206],"max":[1445],"type":"SCALAR","bufferView":1,"byteOffset":3576}],"asset":{"generator":"obj2gltf","version":"2.0"},"buffers":[{"name":"model","byteLength":21648,"uri":"data:application/octet-stream;base64,"}],"bufferViews":[{"name":"bufferView_0","buffer":0,"byteLength":17352,"byteOffset":0,"byteStride":12,"target":34962},{"name":"bufferView_1","buffer":0,"byteLength":4296,"byteOffset":17352,"target":34963}],"materials":[{"name":"mat23","pbrMetallicRoughness":{"baseColorFactor":[0.1,0.1,0.1,1],"metallicFactor":0,"roughnessFactor":1},"emissiveFactor":[0,0,0],"alphaMode":"OPAQUE","doubleSided":false},{"name":"mat17","pbrMetallicRoughness":{"baseColorFactor":[0.27,0.35,0.39,1],"metallicFactor":0,"roughnessFactor":1},"emissiveFactor":[0,0,0],"alphaMode":"OPAQUE","doubleSided":false},{"name":"mat16","pbrMetallicRoughness":{"baseColorFactor":[0.47,0.56,0.61,1],"metallicFactor":0,"roughnessFactor":1},"emissiveFactor":[0,0,0],"alphaMode":"OPAQUE","doubleSided":false},{"name":"mat20","pbrMetallicRoughness":{"baseColorFactor":[0.47,0.33,0.28,1],"metallicFactor":0,"roughnessFactor":1},"emissiveFactor":[0,0,0],"alphaMode":"OPAQUE","doubleSided":false}],"meshes":[{"name":"Node-Mesh","primitives":[{"attributes":{"POSITION":0},"indices":1,"material":0,"mode":4},{"attributes":{"POSITION":0},"indices":2,"material":1,"mode":4},{"attributes":{"POSITION":0},"indices":3,"material":2,"mode":4},{"attributes":{"POSITION":0},"indices":4,"material":3,"mode":4}]}],"nodes":[{"name":"Node","mesh":0}],"scene":0,"scenes":[{"nodes":[0]}]}
