{"accessors":[{"name":"Node-Mesh_positions","componentType":5126,"count":1824,"min":[-0.8481531143188477,-0.9860349297523499,-1.878345012664795],"max":[0.26934850215911865,0.8239663243293762,1.7916539907455444],"type":"VEC3","bufferView":0,"byteOffset":0},{"name":"Node-Mesh_0_indices","componentType":5123,"count":288,"min":[0],"max":[191],"type":"SCALAR","bufferView":1,"byteOffset":0},{"name":"Node-Mesh_1_indices","componentType":5123,"count":504,"min":[192],"max":[527],"type":"SCALAR","bufferView":1,"byteOffset":576},{"name":"Node-Mesh_2_indices","componentType":5123,"count":2376,"min":[528],"max":[1823],"type":"SCALAR","bufferView":1,"byteOffset":1584}],"asset":{"generator":"obj2gltf","version":"2.0"},"buffers":[{"name":"model","byteLength":28224,"uri":"data:application/octet-stream;base64,"}],"bufferViews":[{"name":"bufferView_0","buffer":0,"byteLength":21888,"byteOffset":0,"byteStride":12,"target":34962},{"name":"bufferView_1","buffer":0,"byteLength":6336,"byteOffset":21888,"target":34963}],"materials":[{"name":"mat23","pbrMetallicRoughness":{"baseColorFactor":[0.1,0.1,0.1,1],"metallicFactor":0,"roughnessFactor":1},"emissiveFactor":[0,0,0],"alphaMode":"OPAQUE","doubleSided":false},{"name":"mat21","pbrMetallicRoughness":{"baseColorFactor":[1,1,1,1],"metallicFactor":0,"roughnessFactor":1},"emissiveFactor":[0,0,0],"alphaMode":"OPAQUE","doubleSided":false},{"name":"mat15","pbrMetallicRoughness":{"baseColorFactor":[0.81,0.85,0.86,1],"metallicFactor":0,"roughnessFactor":1},"emissiveFactor":[0,0,0],"alphaMode":"OPAQUE","doubleSided":false}],"meshes":[{"name":"Node-Mesh","primitives":[{"attributes":{"POSITION":0},"indices":1,"material":0,"mode":4},{"attributes":{"POSITION":0},"indices":2,"material":1,"mode":4},{"attributes":{"POSITION":0},"indices":3,"material":2,"mode":4}]}],"nodes":[{"name":"Node","mesh":0}],"scene":0,"scenes":[{"nodes":[0]}]}
