{"accessors":[{"name":"mesh2137027451_positions","componentType":5126,"count":24,"min":[-0.7953283786773682,-0.009910047054290771,-0.9750000834465027],"max":[0.7953283786773682,0.009910106658935547,0.9750000834465027],"type":"VEC3","bufferView":0,"byteOffset":0},{"name":"mesh2137027451_normals","componentType":5126,"count":24,"min":[-1,-1,-1],"max":[1,1,1],"type":"VEC3","bufferView":0,"byteOffset":288},{"name":"mesh2137027451_texcoords","componentType":5126,"count":24,"min":[-0.19857250154018402,0.8371009230613708],"max":[0.19857250154018402,1.098302960395813],"type":"VEC2","bufferView":1,"byteOffset":0},{"name":"mesh2137027451_0_indices","componentType":5123,"count":36,"min":[0],"max":[23],"type":"SCALAR","bufferView":2,"byteOffset":0}],"asset":{"generator":"obj2gltf","version":"2.0"},"buffers":[{"name":"model","byteLength":840,"uri":"data:application/octet-stream;base64,"}],"bufferViews":[{"name":"bufferView_0","buffer":0,"byteLength":576,"byteOffset":0,"byteStride":12,"target":34962},{"name":"bufferView_1","buffer":0,"byteLength":192,"byteOffset":576,"byteStride":8,"target":34962},{"name":"bufferView_2","buffer":0,"byteLength":72,"byteOffset":768,"target":34963}],"materials":[{"name":"mat23","pbrMetallicRoughness":{"baseColorFactor":[0.1,0.1,0.1,1],"metallicFactor":0,"roughnessFactor":1},"emissiveFactor":[0,0,0],"alphaMode":"OPAQUE","doubleSided":false}],"meshes":[{"name":"mesh2137027451","primitives":[{"attributes":{"POSITION":0,"NORMAL":1,"TEXCOORD_0":2},"indices":3,"material":0,"mode":4}]}],"nodes":[{"name":"group2137027451","mesh":0}],"scene":0,"scenes":[{"nodes":[0]}]}
