{"accessors":[{"name":"Node-Mesh_positions","componentType":5126,"count":624,"min":[-0.7101932168006897,-0.3303852081298828,-0.31500059366226196],"max":[0.4598079025745392,0.259616494178772,0.3150005042552948],"type":"VEC3","bufferView":0,"byteOffset":0},{"name":"Node-Mesh_normals","componentType":5126,"count":624,"min":[-1,-1,-1],"max":[1,1,1],"type":"VEC3","bufferView":0,"byteOffset":7488},{"name":"Node-Mesh_0_indices","componentType":5123,"count":864,"min":[0],"max":[575],"type":"SCALAR","bufferView":1,"byteOffset":0},{"name":"Node-Mesh_1_indices","componentType":5123,"count":72,"min":[576],"max":[623],"type":"SCALAR","bufferView":1,"byteOffset":1728}],"asset":{"generator":"obj2gltf","version":"2.0"},"buffers":[{"name":"model","byteLength":16848,"uri":"data:application/octet-stream;base64,"}],"bufferViews":[{"name":"bufferView_0","buffer":0,"byteLength":14976,"byteOffset":0,"byteStride":12,"target":34962},{"name":"bufferView_1","buffer":0,"byteLength":1872,"byteOffset":14976,"target":34963}],"materials":[{"name":"mat23","pbrMetallicRoughness":{"baseColorFactor":[0.1,0.1,0.1,1],"metallicFactor":0,"roughnessFactor":1},"emissiveFactor":[0,0,0],"alphaMode":"OPAQUE","doubleSided":false},{"name":"mat24","pbrMetallicRoughness":{"baseColorFactor":[0.92,0.95,0.94,0.4],"metallicFactor":0,"roughnessFactor":0.7},"emissiveFactor":[0,0,0],"alphaMode":"BLEND","doubleSided":true}],"meshes":[{"name":"Node-Mesh","primitives":[{"attributes":{"POSITION":0,"NORMAL":1},"indices":2,"material":0,"mode":4},{"attributes":{"POSITION":0,"NORMAL":1},"indices":3,"material":1,"mode":4}]}],"nodes":[{"name":"Node","mesh":0}],"scene":0,"scenes":[{"nodes":[0]}]}
