{"accessors":[{"name":"Oriental_Rug_Cube-Mesh_positions","componentType":5126,"count":2928,"min":[-3.5759499073028564,-0.05272800102829933,-4.95774507522583],"max":[3.5792059898376465,0,4.967010974884033],"type":"VEC3","bufferView":0,"byteOffset":0},{"name":"Oriental_Rug_Cube-Mesh_normals","componentType":5126,"count":2928,"min":[-1,-1,-1],"max":[1,1,1],"type":"VEC3","bufferView":0,"byteOffset":35136},{"name":"Oriental_Rug_Cube-Mesh_0_indices","componentType":5123,"count":1440,"min":[0],"max":[415],"type":"SCALAR","bufferView":1,"byteOffset":0},{"name":"Oriental_Rug_Cube-Mesh_1_indices","componentType":5123,"count":4068,"min":[15],"max":[2927],"type":"SCALAR","bufferView":1,"byteOffset":2880},{"name":"Oriental_Rug_Cube-Mesh_2_indices","componentType":5123,"count":816,"min":[0],"max":[1295],"type":"SCALAR","bufferView":1,"byteOffset":11016}],"asset":{"generator":"obj2gltf","version":"2.0"},"buffers":[{"name":"Oriental_rug_01","byteLength":82920,"uri":"data:application/octet-stream;base64,"}],"bufferViews":[{"name":"bufferView_0","buffer":0,"byteLength":70272,"byteOffset":0,"byteStride":12,"target":34962},{"name":"bufferView_1","buffer":0,"byteLength":12648,"byteOffset":70272,"target":34963}],"materials":[{"name":"F44336","pbrMetallicRoughness":{"baseColorFactor":[0.956863,0.262745,0.211765,1],"metallicFactor":0,"roughnessFactor":0.903921569},"emissiveFactor":[0,0,0],"alphaMode":"OPAQUE","doubleSided":false},{"name":"FFCC88","pbrMetallicRoughness":{"baseColorFactor":[1,0.8,0.533333,1],"metallicFactor":0,"roughnessFactor":0.903921569},"emissiveFactor":[0,0,0],"alphaMode":"OPAQUE","doubleSided":false},{"name":"4CAF50","pbrMetallicRoughness":{"baseColorFactor":[0.298039,0.686275,0.313726,1],"metallicFactor":0,"roughnessFactor":0.903921569},"emissiveFactor":[0,0,0],"alphaMode":"OPAQUE","doubleSided":false}],"meshes":[{"name":"Oriental_Rug_Cube-Mesh","primitives":[{"attributes":{"POSITION":0,"NORMAL":1},"indices":2,"material":0,"mode":4},{"attributes":{"POSITION":0,"NORMAL":1},"indices":3,"material":1,"mode":4},{"attributes":{"POSITION":0,"NORMAL":1},"indices":4,"material":2,"mode":4}]}],"nodes":[{"name":"Oriental_Rug_Cube","mesh":0}],"scene":0,"scenes":[{"nodes":[0]}]}
