{"accessors":[{"name":"pCube54_1_positions","componentType":5126,"count":192,"min":[-207.12205505371094,-52.45868682861328,-0.33722299337387085],"max":[207.12205505371094,11.612510681152344,259.09478759765625],"type":"VEC3","bufferView":0,"byteOffset":0},{"name":"pCube54_1_normals","componentType":5126,"count":192,"min":[-1,-1,-1],"max":[1,1,1],"type":"VEC3","bufferView":0,"byteOffset":2304},{"name":"pCube54_1_texcoords","componentType":5126,"count":192,"min":[0.125,0],"max":[0.875,1],"type":"VEC2","bufferView":1,"byteOffset":0},{"name":"pCube54_1_0_indices","componentType":5123,"count":294,"min":[0],"max":[191],"type":"SCALAR","bufferView":2,"byteOffset":0},{"name":"pCube54_1_1_indices","componentType":5123,"count":6,"min":[176],"max":[179],"type":"SCALAR","bufferView":2,"byteOffset":588}],"asset":{"generator":"obj2gltf","version":"2.0"},"buffers":[{"name":"TV_01(1)","byteLength":6744,"uri":"data:application/octet-stream;base64,"}],"bufferViews":[{"name":"bufferView_0","buffer":0,"byteLength":4608,"byteOffset":0,"byteStride":12,"target":34962},{"name":"bufferView_1","buffer":0,"byteLength":1536,"byteOffset":4608,"byteStride":8,"target":34962},{"name":"bufferView_2","buffer":0,"byteLength":600,"byteOffset":6144,"target":34963}],"materials":[{"name":"blinn5SG","pbrMetallicRoughness":{"baseColorFactor":[0.01,0.01,0.01,1],"metallicFactor":0,"roughnessFactor":1},"emissiveFactor":[0,0,0],"alphaMode":"OPAQUE","doubleSided":false},{"name":"blinn3SG","pbrMetallicRoughness":{"baseColorFactor":[0.34,0.34,0.34,1],"metallicFactor":0,"roughnessFactor":1},"emissiveFactor":[0,0,0],"alphaMode":"OPAQUE","doubleSided":false}],"meshes":[{"name":"pCube54_1","primitives":[{"attributes":{"POSITION":0,"NORMAL":1,"TEXCOORD_0":2},"indices":3,"material":0,"mode":4},{"attributes":{"POSITION":0,"NORMAL":1,"TEXCOORD_0":2},"indices":4,"material":1,"mode":4}]}],"nodes":[{"name":"pCube54","mesh":0}],"scene":0,"scenes":[{"nodes":[0]}]}
